<?xml version="1.0" standalone="no"?>
<!DOCTYPE svg PUBLIC "-//W3C//DTD SVG 20010904//EN"
 "http://www.w3.org/TR/2001/REC-SVG-20010904/DTD/svg10.dtd">
<svg version="1.0"
        xmlns="http://www.w3.org/2000/svg" height="232" width="232" viewBox="0 0 2600.000000 2600.000000" preserveAspectRatio="xMidYMid meet">
        <metadata>
Created by potrace 1.15, written by Peter Selinger 2001-2017
        </metadata>
        <g transform="translate(0.000000,2600.000000) scale(0.100000,-0.100000)" fill="#407878" stroke="none">
                <path d="M10125 18510 c-653 -57 -1204 -206 -1740 -471 -637 -315 -1202 -794
-1655 -1404 -476 -638 -823 -1432 -994 -2270 -181 -892 -142 -1727 112 -2392
160 -417 383 -848 598 -1154 239 -340 542 -649 862 -877 165 -119 276 -185
477 -287 260 -132 575 -251 863 -326 50 -13 92 -27 92 -30 0 -4 -14 -12 -32
-20 -105 -43 -290 -193 -382 -310 -162 -204 -251 -466 -249 -729 1 -159 27
-276 91 -413 187 -400 633 -678 1205 -752 137 -17 414 -20 555 -4 147 16 372
63 515 109 l129 41 61 -40 c193 -125 471 -224 787 -280 326 -58 704 -74 1595
-68 698 5 755 8 1035 63 514 100 822 324 946 687 42 123 55 225 55 426 -1 290
-29 491 -136 996 -35 165 -72 349 -83 408 l-20 109 22 -6 c141 -35 702 -73
926 -63 202 10 450 63 848 182 106 32 194 56 196 54 8 -9 137 -352 174 -464
l40 -120 6 -390 c5 -419 18 -582 62 -810 30 -153 96 -360 149 -465 147 -295
376 -494 659 -575 151 -43 291 -48 1273 -42 744 4 919 8 1023 21 542 70 921
256 1164 571 107 138 157 230 219 395 92 246 139 573 117 809 -21 223 -63 372
-165 576 -86 171 -173 292 -326 450 l-127 130 10 115 c15 180 3 636 -22 820
-74 556 -237 968 -514 1297 -42 51 -97 110 -122 131 l-44 38 39 120 c55 167
81 312 88 484 6 161 -4 271 -43 455 -166 791 -609 1484 -1304 2037 -761 606
-1763 995 -2855 1108 -275 29 -817 31 -1040 4 l-51 -6 -12 110 c-62 554 -375
888 -946 1008 -150 31 -361 42 -473 24 -101 -16 -221 -54 -306 -96 l-69 -34
-43 37 c-24 21 -88 77 -142 124 -593 519 -1327 840 -2163 945 -155 19 -765 28
-935 14z m870 -924 c903 -126 1629 -551 2170 -1271 72 -95 225 -326 225 -338
0 -2 -42 -21 -92 -42 -152 -62 -444 -208 -587 -294 -280 -170 -466 -315 -701
-551 -179 -178 -294 -318 -448 -543 -331 -484 -473 -854 -473 -1231 0 -199 31
-356 116 -586 l28 -76 -52 -114 c-137 -298 -272 -679 -350 -992 l-47 -187 -95
-108 c-211 -239 -379 -452 -541 -688 -81 -118 -238 -376 -282 -464 l-28 -53
-91 6 c-141 11 -386 43 -547 72 -711 129 -1239 379 -1658 787 -277 271 -493
588 -692 1017 -243 523 -305 775 -317 1286 -12 538 66 1035 248 1578 276 822
758 1539 1362 2023 131 106 305 228 313 220 3 -2 -9 -60 -26 -128 -127 -508
-320 -903 -573 -1176 -108 -117 -127 -158 -107 -234 7 -24 21 -56 31 -71 25
-34 95 -68 142 -68 101 0 459 172 747 358 657 425 1222 1072 1587 1815 l38 79
290 -5 c193 -3 330 -10 410 -21z m3134 -802 c102 -21 215 -75 262 -124 47 -49
76 -127 89 -238 17 -149 23 -137 -77 -156 -49 -10 -98 -20 -109 -23 -18 -4
-29 9 -75 89 -67 117 -204 333 -266 417 l-46 64 73 -7 c40 -3 107 -13 149 -22z
m2191 -1313 c554 -66 1073 -213 1538 -437 197 -94 301 -154 492 -280 204 -134
345 -249 511 -414 232 -231 386 -443 519 -715 193 -392 265 -749 201 -989
-161 -606 -999 -1258 -2326 -1811 -458 -191 -1036 -382 -1347 -445 -173 -36
-599 -26 -887 21 -451 72 -870 250 -1250 531 -375 278 -718 646 -1173 1258
-361 487 -501 709 -569 910 -30 87 -33 106 -34 220 0 149 17 215 100 379 90
181 319 506 477 679 542 594 1504 992 2646 1097 249 22 261 23 607 20 247 -3
360 -8 495 -24z m-4156 -4196 c543 -677 1095 -1151 1657 -1426 l66 -32 6 -136
c10 -220 34 -371 131 -828 98 -462 126 -648 126 -842 l0 -103 -37 -38 c-60
-59 -174 -94 -393 -122 -129 -16 -1498 -15 -1768 2 -522 32 -808 114 -890 255
-21 36 -23 50 -19 131 6 127 47 213 155 322 83 85 147 130 281 200 112 59 146
85 198 155 82 112 103 249 65 417 -45 192 -80 439 -107 740 -22 249 -31 735
-16 885 24 233 80 490 161 740 l41 126 111 -148 c62 -81 166 -215 232 -298z
m7749 73 c239 -336 327 -949 241 -1661 -14 -116 -15 -149 -5 -205 26 -138 88
-225 234 -325 151 -103 269 -233 341 -375 61 -120 80 -278 55 -459 -47 -350
-200 -499 -583 -570 -80 -15 -207 -17 -1077 -20 l-985 -4 -27 21 c-35 28 -92
147 -117 243 -43 173 -52 284 -60 752 -7 438 -8 453 -33 550 -32 125 -111 360
-188 558 -32 84 -55 155 -51 158 4 4 77 38 162 75 619 273 1215 619 1625 947
123 97 325 277 389 346 17 17 31 31 32 31 2 0 23 -28 47 -62z m-9179 -1433 c9
-105 25 -262 36 -350 12 -88 23 -182 26 -210 l6 -50 -74 -55 c-100 -75 -240
-217 -320 -325 -227 -305 -319 -685 -252 -1042 6 -30 4 -32 -33 -43 -119 -34
-273 -52 -443 -53 -235 -2 -387 24 -551 94 -153 65 -259 154 -306 256 -22 48
-25 65 -21 137 9 161 106 296 270 375 156 75 303 98 553 85 305 -14 342 -13
408 21 68 34 140 107 168 171 12 25 32 97 45 160 40 188 117 401 218 602 68
134 244 428 252 420 2 -2 10 -89 18 -193z"/>
                <path d="M10868 15186 c-80 -23 -138 -57 -204 -119 -198 -185 -203 -490 -11
-682 123 -123 291 -171 452 -130 177 46 319 192 356 365 16 74 6 202 -20 272
-46 119 -159 233 -279 279 -72 27 -224 35 -294 15z"/>
                <path d="M8018 14071 c-235 -75 -377 -315 -327 -553 16 -77 62 -168 114 -226
176 -195 480 -212 673 -37 71 64 106 118 137 208 73 220 -25 469 -225 572
-112 57 -260 71 -372 36z"/>
                <path d="M10537 12499 c-129 -19 -227 -143 -227 -284 0 -23 -9 -77 -20 -120
-32 -125 -89 -209 -171 -250 -60 -31 -109 -32 -168 -3 -63 30 -175 145 -243
249 -89 136 -144 172 -263 172 -108 1 -192 -50 -239 -145 -31 -61 -35 -150
-11 -219 44 -124 264 -385 404 -479 253 -169 495 -192 746 -70 282 138 461
415 505 784 14 115 3 181 -39 248 -26 40 -109 107 -135 108 -6 1 -29 4 -51 8
-22 4 -61 5 -88 1z"/>
        </g>
</svg>
